<?xml version="1.0" encoding="UTF-8" standalone="no"?>
<!DOCTYPE svg PUBLIC "-//W3C//DTD SVG 1.1//EN" "http://www.w3.org/Graphics/SVG/1.1/DTD/svg11.dtd">
<svg width="100%" height="100%" viewBox="0 0 603 254" version="1.1" xmlns="http://www.w3.org/2000/svg" xmlns:xlink="http://www.w3.org/1999/xlink" xml:space="preserve" xmlns:serif="http://www.serif.com/" style="fill-rule:evenodd;clip-rule:evenodd;stroke-linecap:round;stroke-linejoin:round;">
    <g transform="matrix(1,0,0,1,-365.65,-134.2)">
        <path id="Layer0_0_MEMBER_0_1_STROKES" d="M367.65,211.75L646.9,211.75L646.9,206.65C646.9,188.883 652.617,173.5 664.05,160.5C665.15,159.233 666.3,158 667.5,156.8C667.533,156.767 667.567,156.733 667.6,156.7C681.333,143.033 697.917,136.2 717.35,136.2C736.783,136.2 753.35,143.033 767.05,156.7C767.083,156.733 767.117,156.767 767.15,156.8C768.35,158 769.517,159.233 770.65,160.5C782.083,173.5 787.8,188.883 787.8,206.65C787.8,208.383 787.75,210.083 787.65,211.75C787.75,211.117 787.8,210.467 787.8,209.8C787.8,202.2 790.483,195.717 795.85,190.35C801.183,185.017 807.65,182.35 815.25,182.35C822.817,182.35 829.283,185.017 834.65,190.35C839.983,195.717 842.65,202.2 842.65,209.8C842.65,210.467 842.633,211.117 842.6,211.75M729.45,255.3C729.55,254.667 729.6,254.017 729.6,253.35C729.6,249.683 730.233,246.283 731.5,243.15C732.833,239.75 734.883,236.667 737.65,233.9C742.983,228.567 749.45,225.9 757.05,225.9C764.617,225.9 771.083,228.567 776.45,233.9C779.217,236.667 781.267,239.75 782.6,243.15C783.833,246.283 784.45,249.683 784.45,253.35L784.45,255.3L929.55,255.3M472.7,300.15L787.8,300.15M413.75,255.3L698.15,255.3" style="fill:none;fill-rule:nonzero;stroke:rgb(0,153,255);stroke-width:4px;"/>
    </g>
    <g transform="matrix(1,0,0,1,-489.95,-97.25)">
        <g id="Layer0_0_MEMBER_1_FILL">
            <path d="M625.45,232.65C622.983,231.517 620.567,230.45 618.2,229.45L592.1,246.75C619.1,257.617 640.033,255.65 654.9,240.85C644.533,239.65 634.717,236.917 625.45,232.65M674.1,274.55C688.333,272.517 701.567,268.05 713.8,261.15C743.867,244.183 774.117,217.967 804.55,182.5C745.883,226.1 696,245.55 654.9,240.85C640.033,255.65 619.1,257.617 592.1,246.75L618.2,229.45C576.967,211.683 555,213.7 552.3,235.5C553.267,236.333 556.65,239.967 562.45,246.4C568.217,252.833 594.617,261.733 641.65,273.1C652.117,275.633 662.933,276.117 674.1,274.55M674.1,274.55L654.65,285.9C694.383,291.433 714.1,283.183 713.8,261.15C701.567,268.05 688.333,272.517 674.1,274.55Z" style="fill:white;fill-rule:nonzero;"/>
            <path d="M654.9,240.85C696,245.55 745.883,226.1 804.55,182.5C729.05,215.867 673.833,211.817 638.9,170.35C603.9,128.917 571.567,117.967 541.9,137.5C512.167,157.033 502.8,179.3 513.8,204.3C524.8,229.3 537.633,239.7 552.3,235.5C555,213.7 576.967,211.683 618.2,229.45C620.567,230.45 622.983,231.517 625.45,232.65C634.717,236.917 644.533,239.65 654.9,240.85M553.6,177.95C553.6,181.15 552.45,183.85 550.15,186.05C547.917,188.317 545.183,189.45 541.95,189.45C538.75,189.45 536,188.317 533.7,186.05C531.467,183.85 530.35,181.15 530.35,177.95C530.35,174.783 531.467,172.067 533.7,169.8C536,167.567 538.75,166.45 541.95,166.45C545.183,166.45 547.917,167.567 550.15,169.8C552.45,172.067 553.6,174.783 553.6,177.95Z" style="fill:rgb(83,166,255);fill-rule:nonzero;"/>
            <path d="M550.15,186.05C552.45,183.85 553.6,181.15 553.6,177.95C553.6,174.783 552.45,172.067 550.15,169.8C547.917,167.567 545.183,166.45 541.95,166.45C538.75,166.45 536,167.567 533.7,169.8C531.467,172.067 530.35,174.783 530.35,177.95C530.35,181.15 531.467,183.85 533.7,186.05C536,188.317 538.75,189.45 541.95,189.45C545.183,189.45 547.917,188.317 550.15,186.05Z" style="fill:rgb(238,238,238);fill-rule:nonzero;"/>
        </g>
        <path id="Layer0_0_MEMBER_1_1_STROKES" d="M804.55,182.5C793.617,168.2 793.617,153.017 804.55,136.95C819.083,148.417 823.017,160.767 816.35,174C839.417,166.067 853.067,173.383 857.3,195.95C836.933,201.517 819.35,197.033 804.55,182.5C774.117,217.967 743.867,244.183 713.8,261.15C714.1,283.183 694.383,291.433 654.65,285.9L674.1,274.55C662.933,276.117 652.117,275.633 641.65,273.1C594.617,261.733 568.217,252.833 562.45,246.4C556.65,239.967 553.267,236.333 552.3,235.5C537.633,239.7 524.8,229.3 513.8,204.3C502.8,179.3 512.167,157.033 541.9,137.5C571.567,117.967 603.9,128.917 638.9,170.35C673.833,211.817 729.05,215.867 804.55,182.5C745.883,226.1 696,245.55 654.9,240.85C640.033,255.65 619.1,257.617 592.1,246.75L618.2,229.45C576.967,211.683 555,213.7 552.3,235.5M674.1,274.55C688.333,272.517 701.567,268.05 713.8,261.15M553.6,177.95C553.6,181.15 552.45,183.85 550.15,186.05C547.917,188.317 545.183,189.45 541.95,189.45C538.75,189.45 536,188.317 533.7,186.05C531.467,183.85 530.35,181.15 530.35,177.95C530.35,174.783 531.467,172.067 533.7,169.8C536,167.567 538.75,166.45 541.95,166.45C545.183,166.45 547.917,167.567 550.15,169.8C552.45,172.067 553.6,174.783 553.6,177.95ZM618.2,229.45C620.567,230.45 622.983,231.517 625.45,232.65C634.717,236.917 644.533,239.65 654.9,240.85" style="fill:none;fill-rule:nonzero;stroke:rgb(0,153,255);stroke-width:6px;"/>
    </g>
    <g transform="matrix(0.370117,0.213684,-0.306305,0.530563,288.6,-109.75)">
        <g id="Layer0_0_MEMBER_2_FILL">
            <path d="M625.45,232.65C622.983,231.517 620.567,230.45 618.2,229.45L592.1,246.75C619.1,257.617 640.033,255.65 654.9,240.85C644.533,239.65 634.717,236.917 625.45,232.65M674.1,274.55C688.333,272.517 701.567,268.05 713.8,261.15C743.867,244.183 774.117,217.967 804.55,182.5C745.883,226.1 696,245.55 654.9,240.85C640.033,255.65 619.1,257.617 592.1,246.75L618.2,229.45C576.967,211.683 555,213.7 552.3,235.5C553.267,236.333 556.65,239.967 562.45,246.4C568.217,252.833 594.617,261.733 641.65,273.1C652.117,275.633 662.933,276.117 674.1,274.55M674.1,274.55L654.65,285.9C694.383,291.433 714.1,283.183 713.8,261.15C701.567,268.05 688.333,272.517 674.1,274.55Z" style="fill:white;fill-rule:nonzero;"/>
            <path d="M654.9,240.85C696,245.55 745.883,226.1 804.55,182.5C729.05,215.867 673.833,211.817 638.9,170.35C603.9,128.917 571.567,117.967 541.9,137.5C512.167,157.033 502.8,179.3 513.8,204.3C524.8,229.3 537.633,239.7 552.3,235.5C555,213.7 576.967,211.683 618.2,229.45C620.567,230.45 622.983,231.517 625.45,232.65C634.717,236.917 644.533,239.65 654.9,240.85M550.15,186.05C547.917,188.317 545.183,189.45 541.95,189.45C538.75,189.45 536,188.317 533.7,186.05C531.467,183.85 530.35,181.15 530.35,177.95C530.35,174.783 531.467,172.067 533.7,169.8C536,167.567 538.75,166.45 541.95,166.45C545.183,166.45 547.917,167.567 550.15,169.8C552.45,172.067 553.6,174.783 553.6,177.95C553.6,181.15 552.45,183.85 550.15,186.05Z" style="fill:rgb(83,166,255);fill-rule:nonzero;"/>
            <path d="M541.95,189.45C545.183,189.45 547.917,188.317 550.15,186.05C552.45,183.85 553.6,181.15 553.6,177.95C553.6,174.783 552.45,172.067 550.15,169.8C547.917,167.567 545.183,166.45 541.95,166.45C538.75,166.45 536,167.567 533.7,169.8C531.467,172.067 530.35,174.783 530.35,177.95C530.35,181.15 531.467,183.85 533.7,186.05C536,188.317 538.75,189.45 541.95,189.45Z" style="fill:rgb(238,238,238);fill-rule:nonzero;"/>
        </g>
        <g id="Layer0_0_MEMBER_2_1_STROKES" transform="matrix(2.026413,-0.816132,1.169891,1.413605,-450,391.85)">
            <path d="M528.477,156.997C528.811,147.074 533.461,139.018 542.429,132.83C544.296,142.02 541.969,149.412 535.448,155.009C546.415,155.729 549.226,162.528 543.881,175.405C534.638,174.007 529.503,167.871 528.477,156.997ZM528.477,156.997C506.35,169.312 487.123,176.757 470.798,179.334C464.16,191.089 454.336,191.253 441.325,179.826L452,177.961C447.387,176.406 443.532,173.838 440.434,170.257C426.508,154.176 419.463,143.813 419.299,139.167C419.123,134.515 418.983,131.864 418.881,131.215C412.166,130.31 410.602,122.05 414.188,106.435C417.774,90.82 428.062,81.008 445.05,76.998C462.013,72.973 470.626,85.692 470.889,115.154C471.117,144.62 490.313,158.567 528.477,156.997ZM528.477,156.997C493.409,167.594 468.988,167.254 455.216,155.978C445.18,160.653 436.83,157.224 430.166,145.689L445.125,142.087C435.306,123.85 426.558,120.226 418.881,131.215M452,177.961C457.891,179.923 464.157,180.381 470.798,179.334M436.99,100.959C436.01,102.657 434.757,103.844 433.232,104.52C431.711,105.245 430.352,105.262 429.156,104.571C427.971,103.888 427.3,102.699 427.144,101.005C426.991,99.36 427.405,97.689 428.385,95.991C429.355,94.311 430.6,93.108 432.121,92.383C433.656,91.689 435.016,91.685 436.201,92.368C437.397,93.059 438.067,94.236 438.209,95.898C438.366,97.592 437.96,99.279 436.99,100.959ZM445.125,142.087C445.694,143.124 446.262,144.206 446.828,145.334C448.951,149.578 451.747,153.126 455.216,155.978" style="fill:none;fill-rule:nonzero;stroke:rgb(0,153,255);stroke-width:6px;"/>
        </g>
    </g>
</svg>
